<svg xmlns="http://www.w3.org/2000/svg" xmlns:xlink="http://www.w3.org/1999/xlink" width="500" zoomAndPan="magnify" viewBox="0 0 375 374.999991" height="500" preserveAspectRatio="xMidYMid meet" version="1.0"><defs><clipPath id="474bc19faf"><path d="M 88.015625 98.21875 L 131.960938 98.21875 L 131.960938 293 L 88.015625 293 Z M 88.015625 98.21875 " clip-rule="nonzero"/></clipPath><clipPath id="5c44b07ed2"><path d="M 90.652344 163.152344 C 89.058594 173.132812 88.015625 184.480469 88.015625 195.621094 C 88.015625 206.757812 88.910156 217.476562 90.503906 227.351562 C 90.554688 227.5625 90.554688 227.773438 90.605469 227.980469 C 96.976562 265.070312 113.8125 292.390625 131.960938 292.914062 L 131.960938 98.21875 C 113.710938 98.746094 96.878906 125.640625 90.652344 163.152344 Z M 90.652344 163.152344 " clip-rule="nonzero"/></clipPath><clipPath id="6afc34a1a7"><path d="M 0.015625 0.21875 L 43.960938 0.21875 L 43.960938 195 L 0.015625 195 Z M 0.015625 0.21875 " clip-rule="nonzero"/></clipPath><clipPath id="66a2bc951a"><path d="M 2.652344 65.152344 C 1.058594 75.132812 0.015625 86.480469 0.015625 97.621094 C 0.015625 108.757812 0.910156 119.476562 2.503906 129.351562 C 2.554688 129.5625 2.554688 129.773438 2.605469 129.980469 C 8.976562 167.070312 25.8125 194.390625 43.960938 194.914062 L 43.960938 0.21875 C 25.710938 0.746094 8.878906 27.640625 2.652344 65.152344 Z M 2.652344 65.152344 " clip-rule="nonzero"/></clipPath><clipPath id="89b9803a9d"><rect x="0" width="44" y="0" height="195"/></clipPath><clipPath id="288fce4255"><path d="M 131.167969 98.21875 L 243.667969 98.21875 L 243.667969 292.914062 L 131.167969 292.914062 Z M 131.167969 98.21875 " clip-rule="nonzero"/></clipPath><clipPath id="83ee5588b0"><path d="M 0.167969 0.21875 L 112.667969 0.21875 L 112.667969 194.914062 L 0.167969 194.914062 Z M 0.167969 0.21875 " clip-rule="nonzero"/></clipPath><clipPath id="9f4f136190"><rect x="0" width="113" y="0" height="195"/></clipPath><clipPath id="e5b6e5bd66"><path d="M 243.039062 98.0625 L 286.984375 98.0625 L 286.984375 195.566406 L 243.039062 195.566406 Z M 243.039062 98.0625 " clip-rule="nonzero"/></clipPath><clipPath id="f7f13e35d9"><path d="M 284.34375 163.097656 C 285.9375 158.109375 286.984375 152.433594 286.984375 146.867188 C 286.984375 141.296875 286.089844 135.9375 284.496094 131 C 284.445312 130.894531 284.445312 130.789062 284.394531 130.683594 C 278.019531 112.140625 261.1875 98.480469 243.039062 98.21875 L 243.039062 195.566406 C 261.289062 195.304688 278.121094 181.855469 284.34375 163.097656 Z M 284.34375 163.097656 " clip-rule="nonzero"/></clipPath><clipPath id="d16d07124d"><path d="M 0.0390625 0.160156 L 43.984375 0.160156 L 43.984375 97.566406 L 0.0390625 97.566406 Z M 0.0390625 0.160156 " clip-rule="nonzero"/></clipPath><clipPath id="a2e3cf2636"><path d="M 41.34375 65.097656 C 42.9375 60.109375 43.984375 54.433594 43.984375 48.867188 C 43.984375 43.296875 43.089844 37.9375 41.496094 33 C 41.445312 32.894531 41.445312 32.789062 41.394531 32.683594 C 35.019531 14.140625 18.1875 0.480469 0.0390625 0.21875 L 0.0390625 97.566406 C 18.289062 97.304688 35.121094 83.855469 41.34375 65.097656 Z M 41.34375 65.097656 " clip-rule="nonzero"/></clipPath><clipPath id="c0a5273d50"><rect x="0" width="44" y="0" height="98"/></clipPath><clipPath id="6986fce365"><path d="M 243.039062 195.410156 L 286.984375 195.410156 L 286.984375 292.914062 L 243.039062 292.914062 Z M 243.039062 195.410156 " clip-rule="nonzero"/></clipPath><clipPath id="100083e463"><path d="M 284.34375 260.449219 C 285.9375 255.457031 286.984375 249.78125 286.984375 244.214844 C 286.984375 238.644531 286.089844 233.285156 284.496094 228.347656 C 284.445312 228.242188 284.445312 228.136719 284.394531 228.035156 C 278.019531 209.488281 261.1875 195.828125 243.039062 195.566406 L 243.039062 292.914062 C 261.289062 292.652344 278.121094 279.203125 284.34375 260.449219 Z M 284.34375 260.449219 " clip-rule="nonzero"/></clipPath><clipPath id="889c36b111"><path d="M 0.0390625 0.410156 L 43.984375 0.410156 L 43.984375 97.914062 L 0.0390625 97.914062 Z M 0.0390625 0.410156 " clip-rule="nonzero"/></clipPath><clipPath id="567b6a3bd5"><path d="M 41.34375 65.449219 C 42.9375 60.457031 43.984375 54.78125 43.984375 49.214844 C 43.984375 43.644531 43.089844 38.285156 41.496094 33.347656 C 41.445312 33.242188 41.445312 33.136719 41.394531 33.035156 C 35.019531 14.488281 18.1875 0.828125 0.0390625 0.566406 L 0.0390625 97.914062 C 18.289062 97.652344 35.121094 84.203125 41.34375 65.449219 Z M 41.34375 65.449219 " clip-rule="nonzero"/></clipPath><clipPath id="26e08a7d5e"><rect x="0" width="44" y="0" height="98"/></clipPath><clipPath id="2cd4503205"><path d="M 146.210938 118.105469 L 239.648438 118.105469 L 239.648438 183.820312 L 146.210938 183.820312 Z M 146.210938 118.105469 " clip-rule="nonzero"/></clipPath><clipPath id="a6f50d0b9c"><path d="M 216.550781 118.105469 C 229.21875 118.105469 239.488281 132.816406 239.488281 150.964844 C 239.488281 169.109375 229.21875 183.820312 216.550781 183.820312 L 169.144531 183.820312 C 156.480469 183.820312 146.210938 169.109375 146.210938 150.964844 C 146.210938 132.816406 156.480469 118.105469 169.144531 118.105469 Z M 216.550781 118.105469 " clip-rule="nonzero"/></clipPath><clipPath id="92898dffff"><path d="M 0.210938 0.105469 L 93.519531 0.105469 L 93.519531 65.820312 L 0.210938 65.820312 Z M 0.210938 0.105469 " clip-rule="nonzero"/></clipPath><clipPath id="49b38de0e9"><path d="M 70.550781 0.105469 C 83.21875 0.105469 93.488281 14.816406 93.488281 32.964844 C 93.488281 51.109375 83.21875 65.820312 70.550781 65.820312 L 23.144531 65.820312 C 10.480469 65.820312 0.210938 51.109375 0.210938 32.964844 C 0.210938 14.816406 10.480469 0.105469 23.144531 0.105469 Z M 70.550781 0.105469 " clip-rule="nonzero"/></clipPath><clipPath id="8efe91d387"><rect x="0" width="94" y="0" height="66"/></clipPath><clipPath id="0814838f86"><path d="M 146.207031 118.097656 L 229.636719 118.097656 L 229.636719 183.8125 L 146.207031 183.8125 Z M 146.207031 118.097656 " clip-rule="nonzero"/></clipPath><clipPath id="3bed18b3ca"><path d="M 227.335938 161.898438 C 228.632812 158.527344 229.488281 154.699219 229.488281 150.9375 C 229.488281 147.179688 228.757812 143.5625 227.457031 140.230469 C 227.414062 140.15625 227.414062 140.085938 227.375 140.015625 C 222.175781 127.496094 208.449219 118.277344 192.597656 118.097656 L 155.207031 118.097656 C 150.238281 118.097656 146.207031 122.128906 146.207031 127.097656 L 146.207031 174.8125 C 146.207031 179.785156 150.238281 183.8125 155.207031 183.8125 L 192.5625 183.8125 C 208.53125 183.636719 222.257812 174.558594 227.335938 161.898438 Z M 227.335938 161.898438 " clip-rule="nonzero"/></clipPath><clipPath id="61b90a5bd2"><path d="M 0.207031 0.0976562 L 83.636719 0.0976562 L 83.636719 65.8125 L 0.207031 65.8125 Z M 0.207031 0.0976562 " clip-rule="nonzero"/></clipPath><clipPath id="07a289902e"><path d="M 81.335938 43.898438 C 82.632812 40.527344 83.488281 36.699219 83.488281 32.9375 C 83.488281 29.179688 82.757812 25.5625 81.457031 22.230469 C 81.414062 22.15625 81.414062 22.085938 81.375 22.015625 C 76.175781 9.496094 62.449219 0.277344 46.597656 0.0976562 L 9.207031 0.0976562 C 4.238281 0.0976562 0.207031 4.128906 0.207031 9.097656 L 0.207031 56.8125 C 0.207031 61.785156 4.238281 65.8125 9.207031 65.8125 L 46.5625 65.8125 C 62.53125 65.636719 76.257812 56.558594 81.335938 43.898438 Z M 81.335938 43.898438 " clip-rule="nonzero"/></clipPath><clipPath id="2c39e03841"><rect x="0" width="84" y="0" height="66"/></clipPath><clipPath id="a02bfe5c8c"><path d="M 146.210938 205.785156 L 239.648438 205.785156 L 239.648438 271.5 L 146.210938 271.5 Z M 146.210938 205.785156 " clip-rule="nonzero"/></clipPath><clipPath id="664ff67f6b"><path d="M 216.550781 205.785156 C 229.21875 205.785156 239.488281 220.496094 239.488281 238.644531 C 239.488281 256.789062 229.21875 271.5 216.550781 271.5 L 169.144531 271.5 C 156.480469 271.5 146.210938 256.789062 146.210938 238.644531 C 146.210938 220.496094 156.480469 205.785156 169.144531 205.785156 Z M 216.550781 205.785156 " clip-rule="nonzero"/></clipPath><clipPath id="630854326f"><path d="M 0.210938 0.785156 L 93.519531 0.785156 L 93.519531 66.5 L 0.210938 66.5 Z M 0.210938 0.785156 " clip-rule="nonzero"/></clipPath><clipPath id="e3fbe75749"><path d="M 70.550781 0.785156 C 83.21875 0.785156 93.488281 15.496094 93.488281 33.644531 C 93.488281 51.789062 83.21875 66.5 70.550781 66.5 L 23.144531 66.5 C 10.480469 66.5 0.210938 51.789062 0.210938 33.644531 C 0.210938 15.496094 10.480469 0.785156 23.144531 0.785156 Z M 70.550781 0.785156 " clip-rule="nonzero"/></clipPath><clipPath id="137c64fbae"><rect x="0" width="94" y="0" height="67"/></clipPath><clipPath id="a0dd5bbfe1"><path d="M 146.207031 205.78125 L 229.636719 205.78125 L 229.636719 271.496094 L 146.207031 271.496094 Z M 146.207031 205.78125 " clip-rule="nonzero"/></clipPath><clipPath id="99c4f13383"><path d="M 227.335938 249.578125 C 228.632812 246.210938 229.488281 242.378906 229.488281 238.621094 C 229.488281 234.859375 228.757812 231.242188 227.457031 227.910156 C 227.414062 227.839844 227.414062 227.769531 227.375 227.695312 C 222.175781 215.179688 208.449219 205.957031 192.597656 205.78125 L 155.207031 205.78125 C 150.238281 205.78125 146.207031 209.808594 146.207031 214.78125 L 146.207031 262.496094 C 146.207031 267.464844 150.238281 271.496094 155.207031 271.496094 L 192.5625 271.496094 C 208.53125 271.316406 222.257812 262.238281 227.335938 249.578125 Z M 227.335938 249.578125 " clip-rule="nonzero"/></clipPath><clipPath id="d71369f870"><path d="M 0.207031 0.78125 L 83.636719 0.78125 L 83.636719 66.496094 L 0.207031 66.496094 Z M 0.207031 0.78125 " clip-rule="nonzero"/></clipPath><clipPath id="29a3ceacd1"><path d="M 81.335938 44.578125 C 82.632812 41.210938 83.488281 37.378906 83.488281 33.621094 C 83.488281 29.859375 82.757812 26.242188 81.457031 22.910156 C 81.414062 22.839844 81.414062 22.769531 81.375 22.695312 C 76.175781 10.179688 62.449219 0.957031 46.597656 0.78125 L 9.207031 0.78125 C 4.238281 0.78125 0.207031 4.808594 0.207031 9.78125 L 0.207031 57.496094 C 0.207031 62.464844 4.238281 66.496094 9.207031 66.496094 L 46.5625 66.496094 C 62.53125 66.316406 76.257812 57.238281 81.335938 44.578125 Z M 81.335938 44.578125 " clip-rule="nonzero"/></clipPath><clipPath id="b7061803a5"><rect x="0" width="84" y="0" height="67"/></clipPath><clipPath id="4c4b7dfdd4"><path d="M 131.9375 292.160156 L 153.347656 292.160156 L 153.347656 311.875 L 131.9375 311.875 Z M 131.9375 292.160156 " clip-rule="nonzero"/></clipPath><clipPath id="ca5d555479"><path d="M 146.210938 311.257812 C 145.117188 311.632812 143.867188 311.875 142.644531 311.875 C 141.421875 311.875 140.242188 311.664062 139.15625 311.292969 C 139.132812 311.28125 139.109375 311.28125 139.085938 311.269531 C 135.011719 309.777344 132.011719 305.839844 131.953125 301.378906 L 131.953125 292.160156 L 153.347656 292.160156 L 153.347656 301.375 C 153.289062 305.859375 150.332031 309.800781 146.210938 311.257812 Z M 146.210938 311.257812 " clip-rule="nonzero"/></clipPath><clipPath id="19974fdbe0"><path d="M 0.9375 0.160156 L 22.347656 0.160156 L 22.347656 19.875 L 0.9375 19.875 Z M 0.9375 0.160156 " clip-rule="nonzero"/></clipPath><clipPath id="8c6a14ec1b"><path d="M 15.210938 19.257812 C 14.117188 19.632812 12.867188 19.875 11.644531 19.875 C 10.421875 19.875 9.242188 19.664062 8.15625 19.292969 C 8.132812 19.28125 8.109375 19.28125 8.085938 19.269531 C 4.011719 17.777344 1.011719 13.839844 0.953125 9.378906 L 0.953125 0.160156 L 22.347656 0.160156 L 22.347656 9.375 C 22.289062 13.859375 19.332031 17.800781 15.210938 19.257812 Z M 15.210938 19.257812 " clip-rule="nonzero"/></clipPath><clipPath id="d4a9d1e45c"><rect x="0" width="23" y="0" height="20"/></clipPath><clipPath id="a7af113bbd"><path d="M 228.765625 292.160156 L 250.175781 292.160156 L 250.175781 311.875 L 228.765625 311.875 Z M 228.765625 292.160156 " clip-rule="nonzero"/></clipPath><clipPath id="7593c6cbda"><path d="M 243.042969 311.257812 C 241.949219 311.632812 240.699219 311.875 239.472656 311.875 C 238.25 311.875 237.070312 311.664062 235.988281 311.292969 C 235.964844 311.28125 235.941406 311.28125 235.917969 311.269531 C 231.84375 309.777344 228.839844 305.839844 228.78125 301.378906 L 228.78125 292.160156 L 250.175781 292.160156 L 250.175781 301.375 C 250.117188 305.859375 247.164062 309.800781 243.042969 311.257812 Z M 243.042969 311.257812 " clip-rule="nonzero"/></clipPath><clipPath id="4f4cef4f74"><path d="M 0.765625 0.160156 L 22.175781 0.160156 L 22.175781 19.875 L 0.765625 19.875 Z M 0.765625 0.160156 " clip-rule="nonzero"/></clipPath><clipPath id="1b3d8c7eb1"><path d="M 15.042969 19.257812 C 13.949219 19.632812 12.699219 19.875 11.472656 19.875 C 10.25 19.875 9.070312 19.664062 7.988281 19.292969 C 7.964844 19.28125 7.941406 19.28125 7.917969 19.269531 C 3.84375 17.777344 0.839844 13.839844 0.78125 9.378906 L 0.78125 0.160156 L 22.175781 0.160156 L 22.175781 9.375 C 22.117188 13.859375 19.164062 17.800781 15.042969 19.257812 Z M 15.042969 19.257812 " clip-rule="nonzero"/></clipPath><clipPath id="beb19b3a71"><rect x="0" width="23" y="0" height="20"/></clipPath><clipPath id="3afed7a2dc"><path d="M 131.167969 63.117188 L 243.644531 63.117188 L 243.644531 77.96875 L 131.167969 77.96875 Z M 131.167969 63.117188 " clip-rule="nonzero"/></clipPath><clipPath id="ffacfaefe9"><path d="M 243.640625 70.542969 C 243.640625 72.511719 242.859375 74.402344 241.46875 75.792969 C 240.074219 77.1875 238.1875 77.96875 236.214844 77.96875 L 138.59375 77.96875 C 134.492188 77.96875 131.167969 74.644531 131.167969 70.542969 C 131.167969 66.441406 134.492188 63.117188 138.59375 63.117188 L 236.214844 63.117188 C 238.1875 63.117188 240.074219 63.902344 241.46875 65.292969 C 242.859375 66.683594 243.640625 68.574219 243.640625 70.542969 Z M 243.640625 70.542969 " clip-rule="nonzero"/></clipPath><clipPath id="dcdb7d9dbe"><path d="M 0.167969 0.117188 L 112.644531 0.117188 L 112.644531 14.96875 L 0.167969 14.96875 Z M 0.167969 0.117188 " clip-rule="nonzero"/></clipPath><clipPath id="59e023d03d"><path d="M 112.640625 7.542969 C 112.640625 9.511719 111.859375 11.402344 110.46875 12.792969 C 109.074219 14.1875 107.1875 14.96875 105.214844 14.96875 L 7.59375 14.96875 C 3.492188 14.96875 0.167969 11.644531 0.167969 7.542969 C 0.167969 3.441406 3.492188 0.117188 7.59375 0.117188 L 105.214844 0.117188 C 107.1875 0.117188 109.074219 0.902344 110.46875 2.292969 C 111.859375 3.683594 112.640625 5.574219 112.640625 7.542969 Z M 112.640625 7.542969 " clip-rule="nonzero"/></clipPath><clipPath id="5c6f5a1f01"><rect x="0" width="113" y="0" height="15"/></clipPath><clipPath id="d1c620ca9a"><path d="M 146.210938 77.21875 L 156.925781 77.21875 L 156.925781 98.96875 L 146.210938 98.96875 Z M 146.210938 77.21875 " clip-rule="nonzero"/></clipPath><clipPath id="85dc8dcd55"><path d="M 0.210938 0.21875 L 10.925781 0.21875 L 10.925781 21.96875 L 0.210938 21.96875 Z M 0.210938 0.21875 " clip-rule="nonzero"/></clipPath><clipPath id="6df243a5c1"><rect x="0" width="11" y="0" height="22"/></clipPath><clipPath id="7e110fa70b"><path d="M 218.074219 77.21875 L 228.789062 77.21875 L 228.789062 98.96875 L 218.074219 98.96875 Z M 218.074219 77.21875 " clip-rule="nonzero"/></clipPath><clipPath id="a1b50399fb"><path d="M 0.0742188 0.21875 L 10.789062 0.21875 L 10.789062 21.96875 L 0.0742188 21.96875 Z M 0.0742188 0.21875 " clip-rule="nonzero"/></clipPath><clipPath id="85b2bb2ad3"><rect x="0" width="11" y="0" height="22"/></clipPath></defs><rect x="-37.5" width="450" fill="#ffffff" y="-37.499999" height="449.999989" fill-opacity="1"/><rect x="-37.5" width="450" fill="#ffffff" y="-37.499999" height="449.999989" fill-opacity="1"/><g clip-path="url(#474bc19faf)"><g clip-path="url(#5c44b07ed2)"><g transform="matrix(1, 0, 0, 1, 88, 98)"><g clip-path="url(#89b9803a9d)"><g clip-path="url(#6afc34a1a7)"><g clip-path="url(#66a2bc951a)"><path fill="#ff6b35" d="M 43.960938 0.21875 L 43.960938 194.882812 L 0.015625 194.882812 L 0.015625 0.21875 Z M 43.960938 0.21875 " fill-opacity="1" fill-rule="nonzero"/></g></g></g></g></g></g><g clip-path="url(#288fce4255)"><g transform="matrix(1, 0, 0, 1, 131, 98)"><g clip-path="url(#9f4f136190)"><g clip-path="url(#83ee5588b0)"><path fill="#ff6b35" d="M 0.167969 0.21875 L 112.667969 0.21875 L 112.667969 194.894531 L 0.167969 194.894531 Z M 0.167969 0.21875 " fill-opacity="1" fill-rule="nonzero"/></g></g></g></g><g clip-path="url(#e5b6e5bd66)"><g clip-path="url(#f7f13e35d9)"><g transform="matrix(1, 0, 0, 1, 243, 98)"><g clip-path="url(#c0a5273d50)"><g clip-path="url(#d16d07124d)"><g clip-path="url(#a2e3cf2636)"><path fill="#ff6b35" d="M 0.0390625 97.566406 L 0.0390625 0.234375 L 43.984375 0.234375 L 43.984375 97.566406 Z M 0.0390625 97.566406 " fill-opacity="1" fill-rule="nonzero"/></g></g></g></g></g></g><g clip-path="url(#6986fce365)"><g clip-path="url(#100083e463)"><g transform="matrix(1, 0, 0, 1, 243, 195)"><g clip-path="url(#26e08a7d5e)"><g clip-path="url(#889c36b111)"><g clip-path="url(#567b6a3bd5)"><path fill="#ff6b35" d="M 0.0390625 97.914062 L 0.0390625 0.582031 L 43.984375 0.582031 L 43.984375 97.914062 Z M 0.0390625 97.914062 " fill-opacity="1" fill-rule="nonzero"/></g></g></g></g></g></g><g clip-path="url(#2cd4503205)"><g clip-path="url(#a6f50d0b9c)"><g transform="matrix(1, 0, 0, 1, 146, 118)"><g clip-path="url(#8efe91d387)"><g clip-path="url(#92898dffff)"><g clip-path="url(#49b38de0e9)"><path fill="#ffffff" d="M 0.210938 0.105469 L 93.390625 0.105469 L 93.390625 65.820312 L 0.210938 65.820312 Z M 0.210938 0.105469 " fill-opacity="1" fill-rule="nonzero"/></g></g></g></g></g></g><g clip-path="url(#0814838f86)"><g clip-path="url(#3bed18b3ca)"><g transform="matrix(1, 0, 0, 1, 146, 118)"><g clip-path="url(#2c39e03841)"><g clip-path="url(#61b90a5bd2)"><g clip-path="url(#07a289902e)"><path fill="#ffffff" d="M 0.207031 65.8125 L 0.207031 0.0976562 L 83.378906 0.0976562 L 83.378906 65.8125 Z M 0.207031 65.8125 " fill-opacity="1" fill-rule="nonzero"/></g></g></g></g></g></g><g clip-path="url(#a02bfe5c8c)"><g clip-path="url(#664ff67f6b)"><g transform="matrix(1, 0, 0, 1, 146, 205)"><g clip-path="url(#137c64fbae)"><g clip-path="url(#630854326f)"><g clip-path="url(#e3fbe75749)"><path fill="#ffffff" d="M 0.210938 0.785156 L 93.390625 0.785156 L 93.390625 66.5 L 0.210938 66.5 Z M 0.210938 0.785156 " fill-opacity="1" fill-rule="nonzero"/></g></g></g></g></g></g><g clip-path="url(#a0dd5bbfe1)"><g clip-path="url(#99c4f13383)"><g transform="matrix(1, 0, 0, 1, 146, 205)"><g clip-path="url(#b7061803a5)"><g clip-path="url(#d71369f870)"><g clip-path="url(#29a3ceacd1)"><path fill="#ffffff" d="M 0.207031 66.496094 L 0.207031 0.78125 L 83.378906 0.78125 L 83.378906 66.496094 Z M 0.207031 66.496094 " fill-opacity="1" fill-rule="nonzero"/></g></g></g></g></g></g><g clip-path="url(#4c4b7dfdd4)"><g clip-path="url(#ca5d555479)"><g transform="matrix(1, 0, 0, 1, 131, 292)"><g clip-path="url(#d4a9d1e45c)"><g clip-path="url(#19974fdbe0)"><g clip-path="url(#8c6a14ec1b)"><path fill="#ff6b35" d="M 22.347656 19.875 L 0.9375 19.875 L 0.9375 0.160156 L 22.347656 0.160156 Z M 22.347656 19.875 " fill-opacity="1" fill-rule="nonzero"/></g></g></g></g></g></g><g clip-path="url(#a7af113bbd)"><g clip-path="url(#7593c6cbda)"><g transform="matrix(1, 0, 0, 1, 228, 292)"><g clip-path="url(#beb19b3a71)"><g clip-path="url(#4f4cef4f74)"><g clip-path="url(#1b3d8c7eb1)"><path fill="#ff6b35" d="M 22.175781 19.875 L 0.765625 19.875 L 0.765625 0.160156 L 22.175781 0.160156 Z M 22.175781 19.875 " fill-opacity="1" fill-rule="nonzero"/></g></g></g></g></g></g><g clip-path="url(#3afed7a2dc)"><g clip-path="url(#ffacfaefe9)"><g transform="matrix(1, 0, 0, 1, 131, 63)"><g clip-path="url(#5c6f5a1f01)"><g clip-path="url(#dcdb7d9dbe)"><g clip-path="url(#59e023d03d)"><path fill="#ff6b35" d="M 0.167969 0.117188 L 112.644531 0.117188 L 112.644531 14.96875 L 0.167969 14.96875 Z M 0.167969 0.117188 " fill-opacity="1" fill-rule="nonzero"/></g></g></g></g></g></g><g clip-path="url(#d1c620ca9a)"><g transform="matrix(1, 0, 0, 1, 146, 77)"><g clip-path="url(#6df243a5c1)"><g clip-path="url(#85dc8dcd55)"><path fill="#ff6b35" d="M 0.210938 0.21875 L 10.925781 0.21875 L 10.925781 21.988281 L 0.210938 21.988281 Z M 0.210938 0.21875 " fill-opacity="1" fill-rule="nonzero"/></g></g></g></g><g clip-path="url(#7e110fa70b)"><g transform="matrix(1, 0, 0, 1, 218, 77)"><g clip-path="url(#85b2bb2ad3)"><g clip-path="url(#a1b50399fb)"><path fill="#ff6b35" d="M 0.0742188 0.21875 L 10.789062 0.21875 L 10.789062 21.988281 L 0.0742188 21.988281 Z M 0.0742188 0.21875 " fill-opacity="1" fill-rule="nonzero"/></g></g></g></g></svg>